<?xml version="1.0" encoding="utf-8"?>
<!-- Generator: Adobe Illustrator 19.2.1, SVG Export Plug-In . SVG Version: 6.00 Build 0)  -->
<svg version="1.1"
	 id="svg2" inkscape:export-filename="C:\Users\Maggie\Desktop\Inkscape\smhackslogo.png" inkscape:export-xdpi="90" inkscape:export-ydpi="90" inkscape:version="0.91 r13725" sodipodi:docname="smhackslogo1.svg" xmlns:cc="http://creativecommons.org/ns#" xmlns:dc="http://purl.org/dc/elements/1.1/" xmlns:inkscape="http://www.inkscape.org/namespaces/inkscape" xmlns:osb="http://www.openswatchbook.org/uri/2009/osb" xmlns:rdf="http://www.w3.org/1999/02/22-rdf-syntax-ns#" xmlns:sodipodi="http://sodipodi.sourceforge.net/DTD/sodipodi-0.dtd" xmlns:svg="http://www.w3.org/2000/svg"
	 xmlns="http://www.w3.org/2000/svg" xmlns:xlink="http://www.w3.org/1999/xlink" x="0px" y="0px" viewBox="0 0 152.3 117.1"
	 style="enable-background:new 0 0 152.3 117.1;" xml:space="preserve">
<style type="text/css">
	.st0{fill:#333333;stroke:#1A1A1A;stroke-width:9.89;stroke-linecap:round;stroke-linejoin:round;}
	.st1{fill:none;stroke:#190F0B;stroke-width:6;stroke-miterlimit:10;}
	.st2{fill:#FF6F4B;}
	.st3{font-family:'PTMono-Regular';}
	.st4{font-size:65px;}
	.st5{fill:#FFFFFF;}
	.st6{font-family:'Quicksand-Regular';}
	.st7{font-size:35px;}
</style>
<sodipodi:namedview  bordercolor="#666666" borderopacity="1.0" id="base" inkscape:current-layer="layer1" inkscape:cx="375.78308" inkscape:cy="526.1811" inkscape:document-units="px" inkscape:pageopacity="0.0" inkscape:pageshadow="2" inkscape:window-height="705" inkscape:window-maximized="1" inkscape:window-width="1366" inkscape:window-x="-8" inkscape:window-y="-8" inkscape:zoom="1.1360799" pagecolor="#ffffff" showgrid="false" showguides="false">
	</sodipodi:namedview>
<g id="layer1" inkscape:groupmode="layer" inkscape:label="Layer 1">
	<path id="rect3785_3_" class="st0" d="M100.6-347.7"/>
	<path id="rect3785_1_" class="st0" d="M-14.3-347.7"/>
	<g id="flowRoot3791" transform="matrix(1.8145898,0,0,1.8204356,-119.30846,-880.83317)">
	</g>
</g>
<path d="M147.3,117.1H5c-2.8,0-5-2.2-5-5L12.6,88c0-2.8,1.9-5,4.2-5h118.9c2.3,0,4.2,2.2,4.2,5l12.6,24.1
	C152.3,114.8,150.1,117.1,147.3,117.1z"/>
<path class="st1" d="M136.2,83h-120V6c0-1.7,1.3-3,3-3h114c1.7,0,3,1.3,3,3V83z"/>
<rect x="23.7" y="10.5" class="st2" width="105" height="65"/>
<text transform="matrix(1 0 0 1 37.1652 65.9873)" class="st3 st4">SM</text>
<text transform="matrix(1 0 0 1 26.2028 111.0458)" class="st5 st6 st7">hacks</text>
</svg>
