<?xml version="1.0" encoding="utf-8"?>
<!-- Generator: Adobe Illustrator 19.2.1, SVG Export Plug-In . SVG Version: 6.00 Build 0)  -->
<svg version="1.1" id="Layer_1" xmlns="http://www.w3.org/2000/svg" xmlns:xlink="http://www.w3.org/1999/xlink" x="0px" y="0px"
	 viewBox="0 0 1239.3 60" style="enable-background:new 0 0 1239.3 60;" xml:space="preserve">
<style type="text/css">
	.st0{fill:#233240;}
	.st1{fill:#F7BE38;stroke:#010101;stroke-miterlimit:10;}
	.st2{fill:#D2D7D4;}
</style>
<rect class="st0" width="1239.3" height="60"/>
<rect x="48.6" y="20.2" class="st1" width="25.9" height="5.2"/>
<rect x="8.1" y="20.2" class="st1" width="25.9" height="5.2"/>
<rect x="131.2" y="20.2" class="st1" width="25.9" height="5.2"/>
<rect x="90.7" y="20.2" class="st1" width="25.9" height="5.2"/>
<rect x="213.9" y="20.2" class="st1" width="25.9" height="5.2"/>
<rect x="173.3" y="20.2" class="st1" width="25.9" height="5.2"/>
<rect x="296.5" y="20.2" class="st1" width="25.9" height="5.2"/>
<rect x="256" y="20.2" class="st1" width="25.9" height="5.2"/>
<rect x="379" y="20.2" class="st1" width="25.9" height="5.2"/>
<rect x="338.5" y="20.2" class="st1" width="25.9" height="5.2"/>
<rect x="461.6" y="20.2" class="st1" width="25.9" height="5.2"/>
<rect x="421.1" y="20.2" class="st1" width="25.9" height="5.2"/>
<rect x="544.3" y="20.2" class="st1" width="25.9" height="5.2"/>
<rect x="503.7" y="20.2" class="st1" width="25.9" height="5.2"/>
<rect x="626.9" y="20.2" class="st1" width="25.9" height="5.2"/>
<rect x="586.4" y="20.2" class="st1" width="25.9" height="5.2"/>
<rect x="626.9" y="20.2" class="st1" width="25.9" height="5.2"/>
<rect x="586.4" y="20.2" class="st1" width="25.9" height="5.2"/>
<rect x="709.6" y="20.2" class="st1" width="25.9" height="5.2"/>
<rect x="669" y="20.2" class="st1" width="25.9" height="5.2"/>
<rect x="792.2" y="20.2" class="st1" width="25.9" height="5.2"/>
<rect x="751.7" y="20.2" class="st1" width="25.9" height="5.2"/>
<rect x="874.9" y="20.2" class="st1" width="25.9" height="5.2"/>
<rect x="834.3" y="20.2" class="st1" width="25.9" height="5.2"/>
<rect x="957.3" y="20.2" class="st1" width="25.9" height="5.2"/>
<rect x="916.8" y="20.2" class="st1" width="25.9" height="5.2"/>
<rect x="1040" y="20.2" class="st1" width="25.9" height="5.2"/>
<rect x="999.4" y="20.2" class="st1" width="25.9" height="5.2"/>
<rect x="1122.6" y="20.2" class="st1" width="25.9" height="5.2"/>
<rect x="1082.1" y="20.2" class="st1" width="25.9" height="5.2"/>
<rect x="1205.3" y="20.2" class="st1" width="25.9" height="5.2"/>
<rect x="1164.7" y="20.2" class="st1" width="25.9" height="5.2"/>
<rect y="52.7" class="st2" width="1239.3" height="7.3"/>
<rect class="st2" width="1239.3" height="3.9"/>
</svg>
